<svg width="26" height="25" viewBox="0 0 26 25" fill="none" xmlns="http://www.w3.org/2000/svg">
    <path opacity="0.5"
          d="M25.8567 3.80417C25.8567 2.17649 24.5376 0.857422 22.9099 0.857422H7.37253C5.74485 0.857422 4.42578 2.17649 4.42578 3.80417V4.07205H25.8567V3.80417Z"
          fill="white"/>
    <path opacity="0.5"
          d="M4.42578 5.14258V7.28566H18.6237C21.4312 7.28566 23.7136 9.56805 23.7136 12.3755V15.7509C24.9566 15.3972 25.8567 14.2614 25.8567 12.9113V5.14258H4.42578Z"
          fill="white"/>
    <path d="M18.6267 9.42969H3.08932C1.46379 9.42969 0.142578 10.7509 0.142578 12.3764V21.4846C0.142578 23.1101 1.46379 24.4313 3.08932 24.4313H18.6267C20.2522 24.4313 21.5735 23.1101 21.5735 21.4846V12.3764C21.5735 10.7509 20.2522 9.42969 18.6267 9.42969ZM3.08932 13.9837C3.08932 12.8018 4.0505 11.8407 5.23241 11.8407H6.83973C8.02164 11.8407 8.98282 12.8018 8.98282 13.9837V15.5911C8.98282 16.773 8.02164 17.7341 6.83973 17.7341H5.23241C4.0505 17.7341 3.08932 16.773 3.08932 15.5911V13.9837ZM17.5552 22.0203H4.16087C3.56938 22.0203 3.08932 21.5403 3.08932 20.9488C3.08932 20.3573 3.56938 19.8772 4.16087 19.8772H17.5552C18.1467 19.8772 18.6267 20.3573 18.6267 20.9488C18.6267 21.5403 18.1467 22.0203 17.5552 22.0203Z"
          fill="white"/>
</svg>
