<svg width="162" height="82" viewBox="0 0 162 82" fill="none" xmlns="http://www.w3.org/2000/svg">
<path d="M74.4142 3.89122C73.0496 4.0063 71.7107 4.6747 70.513 5.27902C66.0276 7.54263 62.1223 10.9729 58.4461 14.3328C45.0105 26.6128 32.2872 45.5107 12.2429 46.6304C8.31263 46.8503 0.789321 46.5209 3.29063 40.8367C5.51778 35.7748 11.0756 31.7361 15.3042 28.4781C27.9437 18.7394 43.0319 10.9639 58.8553 8.12215C61.2548 7.69147 67.5146 6.62823 67.5659 10.6076C67.5991 13.2013 64.9926 15.5456 63.2923 17.1987C61.864 18.5885 60.2579 19.7896 58.6046 20.899C57.6825 21.5178 56.7049 22.0401 55.6831 22.4756C53.6214 22.847 53.3175 22.6231 54.7713 21.8037C55.6513 21.1856 56.6281 20.8039 57.7005 20.6599C62.935 20.2871 60.3458 25.8562 58.7016 28.0357C56.6454 30.761 54.2784 33.2707 51.8844 35.7017C51.4046 36.1889 46.0129 40.9256 46.0019 40.9035C45.268 39.471 48.9622 35.7451 49.8165 34.8287C58.1699 25.8562 69.8505 19.0033 80.4698 13.0077C82.211 12.0244 91.5211 7.57088 89.8949 4.94482C88.873 3.29448 82.4858 4.67401 84.9213 7.5571C88.2243 11.4649 97.8751 8.86083 101.913 8.08425C104.744 7.53919 107.585 6.88388 110.324 5.98256C111.66 5.54293 114.36 4.92346 114.967 3.44814C115.379 2.44692 111.234 2.80041 111.14 2.81213C107.796 3.2366 104.691 4.233 101.65 5.65388C95.5829 8.48804 89.9087 12.9009 86.8833 18.9475C80.4123 31.8808 70.8135 43.1196 55.0088 42.8522C50.6528 42.7785 42.4725 40.8264 44.7453 34.7611C47.3443 27.8276 57.6105 31.4839 61.243 35.3751C61.8896 36.0676 62.4975 36.9813 62.7619 37.9074C62.863 38.263 64.1985 37.8978 64.0995 37.5505C62.0689 30.451 49.9806 27.9703 44.8381 32.8758C42.3631 35.2366 42.5424 38.7598 45.088 40.9311C49.3651 44.5784 57.2263 43.7756 62.2579 42.7599C73.771 40.435 81.6163 31.2448 86.8584 21.3765C88.1953 18.86 89.3479 16.3793 91.1909 14.155C94.1533 10.578 98.3092 7.93678 102.439 5.89781C104.814 4.725 107.306 3.95875 109.915 3.50741C110.494 3.44883 111.074 3.38957 111.653 3.33031C112.768 4.25023 112.76 4.79942 111.628 4.9772C110.884 5.28246 110.103 5.52226 109.335 5.76068C105.556 6.93487 101.631 7.68941 97.7207 8.2765C94.1533 8.81191 89.8921 9.46378 86.6583 7.48337C84.0082 5.86129 88.5144 5.23216 88.72 5.56499C89.0648 6.12107 87.9827 7.08509 87.6691 7.42342C86.3911 8.80433 84.6749 9.85724 83.0937 10.8585C79.5179 13.1235 75.7081 15.0508 72.1088 17.2931C66.7676 20.6192 61.5393 24.1425 56.5402 27.9606C52.6432 30.9374 48.4083 34.2168 45.808 38.4401C44.7059 40.231 44.1236 42.7475 46.9164 41.0255C51.2267 38.3677 54.8226 34.0417 58.0778 30.2518C60.0613 27.942 65.3609 21.7417 59.9283 20.2099C58.0619 19.6835 52.3946 20.8418 52.3559 23.2363C52.3794 23.2901 52.4209 23.3232 52.4805 23.3362C56.1435 24.9811 62.2711 19.2073 64.5149 17.1408C66.1882 15.6 70.6397 11.2609 68.3766 8.5728C66.49 6.3333 62.2552 7.0906 59.7829 7.44341C52.5919 8.47013 45.3428 10.9997 38.7049 13.8732C26.8208 19.0178 14.7511 26.4488 5.78363 35.8512C3.88255 37.844 0.332397 41.5837 1.61455 44.6673C3.04624 48.1106 10.5142 47.3588 13.2799 47.1252C28.2864 45.8587 40.7653 33.8198 50.5178 23.5264C55.9303 17.814 61.3967 12.0843 67.9051 7.5826C69.4372 6.52211 72.3241 4.62578 73.8548 4.49692C74.2404 4.46178 75.3017 3.81611 74.4142 3.89122ZM77.9242 30.9691C78.8623 30.6728 79.8163 30.4213 80.7765 30.207C81.4563 30.0547 82.1673 29.9128 82.868 29.9224C83.5125 29.9314 83.2626 30.3214 82.969 30.6928C82.5793 31.1869 83.9355 31.1138 84.2228 30.7507C85.4703 29.1693 83.4121 29.0452 82.2546 29.1796C80.7239 29.3581 79.196 29.7812 77.7296 30.2442C76.939 30.4937 77.1204 31.2234 77.9242 30.9691ZM83.6669 33.5745C83.9078 33.3478 85.505 31.8663 85.6967 32.5078C85.9626 33.4009 84.6091 34.8514 84.1217 35.4902C82.9933 36.9703 81.6031 38.7867 80.089 39.8913C80.4746 39.8382 80.8589 39.7852 81.2445 39.7321C81.3442 39.8072 84.3356 36.6795 84.8653 36.2289C86.8646 34.5296 89.8949 32.5575 91.7433 35.4571C91.9697 35.8113 93.2713 35.3896 92.9888 34.9465C91.1798 32.1102 87.8996 33.2245 85.552 34.7287C83.6828 35.9263 80.944 37.9929 79.9471 40.0711C79.9305 40.1352 79.945 40.191 79.9914 40.2386C79.9942 40.24 79.997 40.242 79.9997 40.2441C80.3279 40.4915 80.8616 40.2985 81.1545 40.0849C82.1943 39.3262 83.1026 38.1135 83.959 37.1667C85.1311 35.8698 86.6909 34.2767 87.0343 32.4954C87.5445 29.8528 83.075 32.9385 82.6021 33.3837C82.042 33.9087 83.365 33.8577 83.6669 33.5745ZM99.149 34.2188C99.5408 30.6067 89.17 36.6244 88.8696 36.8283C86.9643 38.1204 86.8702 39.5261 89.3203 39.3724C92.6953 39.1602 95.9692 36.7932 98.3888 34.6771C98.6491 34.4497 97.4106 34.624 97.187 34.8073C96.377 35.4702 92.1601 39.2725 95.7082 38.3457C97.9568 37.7579 100.018 36.6864 102.064 35.6073C102.408 35.4254 105.252 33.8522 105.315 34.1527C105.562 35.3303 102.701 38.0294 102.093 38.7715C102.035 38.8411 103.163 38.7957 103.407 38.5214C104.63 37.1488 105.906 35.823 107.23 34.5468C107.389 34.3938 109.504 32.5085 109.585 32.7766C109.962 34.0217 108.566 36.3956 108.163 37.6373C107.36 40.118 112.12 37.5092 112.864 37.1081C121.346 32.5375 129.925 27.4266 137.36 21.2869C138.192 20.5999 142.612 17.2269 141.171 15.7137C139.679 14.1454 136.534 15.9301 135.196 16.8314C130.883 19.7358 127.331 23.7786 123.958 27.6836C121.189 30.8885 118.151 34.2657 116.053 37.9674C115.977 38.1024 117.178 38.0115 117.367 37.7173C118.556 35.8692 119.875 34.101 121.29 32.4196C121.907 31.6872 124.152 28.7489 125.408 29.529C128.784 31.6244 122.089 33.1425 120.419 33.4912C120.335 33.5084 119.32 33.8956 119.733 33.9508C121.164 34.1396 121.958 35.0092 122.157 36.4135C122.242 37.0165 122.226 37.649 122.989 37.6463C124.447 37.6408 126.092 36.7078 127.409 36.2082C130.912 34.8796 134.231 32.8262 137.465 30.9733C139.455 29.8329 157.954 19.474 154.266 16.2629C152.636 14.8434 149.122 17.1277 147.824 17.9725C143.925 20.509 140.573 23.9592 137.453 27.368C135.123 29.9135 131.719 33.2011 130.796 36.6485C130.115 39.196 137.763 35.5115 138.282 35.2807C139.142 34.8982 144.647 32.0138 141.007 32.3183C138.561 32.523 135.877 34.5 134.624 36.51C133.17 38.8405 138.993 37.0103 139.484 36.8035C141.472 35.9677 143.288 34.8886 145.05 33.6545C145.353 33.4388 145.653 33.2224 145.953 33.0047C146.755 32.4252 145.919 32.9068 145.768 33.239C145.205 34.4779 144.431 35.6473 143.745 36.8194C143.638 37.0027 144.833 36.7932 145.003 36.6292C146.252 35.4281 147.536 34.2588 148.892 33.1797C150.328 32.0372 149.163 33.0818 148.591 34.0638C148.37 34.4428 146.681 36.4811 146.996 37.0123C147.061 37.1219 147.269 37.0833 147.368 37.0757C150.5 36.8456 153.069 35.9174 156.178 37.1688C158.217 37.9888 158.555 39.9926 158.297 41.8972C158.132 43.1182 157.7 44.2469 156.964 45.2413C153.162 50.3804 143.862 50.6484 138.214 51.0681C120.323 52.3966 102.462 49.7313 84.6278 48.8134C72.619 48.1953 59.6943 47.6868 47.95 50.8221C45.4577 51.4871 38.3574 53.6604 40.6074 57.5647C43.4376 62.4751 51.973 62.4261 56.6897 62.32C84.3924 61.6998 111.628 51.7682 139.464 53.6852C145.7 54.1152 157.769 56.0281 155.85 64.8379C154.706 70.0914 149.46 74.9942 144.819 77.3536C144.262 77.6368 145.609 77.4631 145.832 77.3494C151.372 74.5332 160.361 66.2154 156.52 59.3301C153.843 54.5314 146.009 53.6935 141.221 53.2525C135.411 52.7171 129.523 53.063 123.72 53.5315C108.807 54.736 94.0439 57.4386 79.2472 59.5706C72.689 60.5153 66.1003 61.3987 59.4783 61.7474C55.193 61.9727 50.6216 62.0912 46.5806 60.4554C42.8346 58.9401 39.1639 55.452 44.0953 52.673C47.8593 50.5513 52.7221 50.091 56.9293 49.6369C64.3473 48.8348 71.861 48.8899 79.3081 49.129C97.5497 49.7147 115.646 52.4635 133.935 51.7585C140.924 51.4891 148.938 51.0419 155.203 47.5566C158.42 45.7663 161.714 40.8388 158.568 37.4602C156.851 35.6163 152.64 35.5632 150.353 35.9684C149.84 36.0593 149.426 36.1482 148.924 36.2771C147.919 36.5355 148.193 36.8628 148.339 36.4128C148.779 35.0622 150.371 33.9687 150.536 32.5278C150.645 31.5783 148.791 32.5485 148.475 32.7442C146.755 33.8136 145.253 35.3634 143.8 36.7615C144.219 36.6981 144.639 36.634 145.058 36.5713C145.199 36.3308 147.809 32.1764 147.167 32.0723C146.287 31.9297 145.395 32.6746 144.749 33.1377C143.492 34.039 142.225 34.9044 140.879 35.6707C139.268 36.5872 134.088 38.5593 136.463 35.5143C136.926 34.9203 137.562 34.4441 138.155 33.9866C138.749 33.5277 142.125 32.5202 139.74 34.0135C138.855 34.5682 132.734 37.8158 132.138 36.9607C130.999 35.3289 136.671 29.5076 137.537 28.5029C140.959 24.5297 144.818 20.5834 149.242 17.7065C150.264 17.0415 153.17 15.3554 153.458 17.5487C153.661 19.0915 151.337 20.8294 150.371 21.6763C146.199 25.3415 141.245 28.208 136.452 30.9788C132.98 32.9854 129.458 35.0609 125.66 36.3742C123.252 37.2066 123.929 36.4183 123.097 34.695C122.771 34.0204 121.898 33.7378 121.236 33.5394C120.949 33.4533 120.036 33.9391 121.315 33.6972C121.995 33.5683 122.674 33.4374 123.35 33.2893C124.199 33.1039 125.119 32.8724 125.895 32.4699C128.903 30.9099 126.658 27.858 123.897 29.2478C120.51 30.9526 118.04 34.881 116.051 37.9708C116.489 37.8875 116.927 37.8041 117.365 37.7207C119.009 34.819 121.321 32.1943 123.428 29.6261C126.7 25.6384 130.173 21.7376 134.125 18.4032C135.33 17.3854 138.145 14.8076 139.776 16.0203C140.656 16.6736 139.474 18.1117 139.049 18.6443C136.589 21.73 132.862 24.0432 129.645 26.2517C125.573 29.0466 121.355 31.6355 117.098 34.1389C115.597 35.0216 114.083 35.885 112.56 36.7277C111.62 37.2473 108.888 39.2029 109.671 36.7884C110.114 35.4192 112.299 30.4544 108.868 32.4155C106.228 33.9239 104.091 36.5279 102.089 38.775C102.527 38.6916 102.966 38.6082 103.403 38.5249C103.618 38.2637 108.11 33.2376 105.945 33.4719C103.393 33.7482 100.853 35.7658 98.6207 36.8497C98.2102 37.0495 94.9536 38.447 95.7587 37.2108C96.163 36.5899 96.7854 36.0869 97.3296 35.588C97.6543 35.2896 97.9921 35.0057 98.3313 34.7239C97.1883 35.0099 96.1935 35.5439 95.3468 36.3274C94.3201 37.0868 93.2228 37.7255 92.0542 38.2423C90.2237 39.0989 87.3936 39.1933 89.4608 37.1812C90.8018 35.876 92.8593 34.9989 94.5409 34.2285C94.9286 34.0507 97.9921 32.8786 97.808 34.5771C97.7983 34.6984 99.1081 34.5909 99.149 34.2188Z" fill="#231F20"/>
</svg>
