<svg width="23" height="20" viewBox="0 0 23 20" fill="none" xmlns="http://www.w3.org/2000/svg">
<path d="M5.65696 20C3.92017 20 2.53074 19.3827 1.48867 18.1481C0.496224 16.8642 0 15.2099 0 13.1852C0 10.4198 0.744337 7.92592 2.23301 5.7037C3.77131 3.4321 6.10356 1.53086 9.22977 0L10.0485 1.18518C8.55987 2.07407 7.19525 3.33333 5.95469 4.96296C4.76375 6.54321 4.16828 8.14815 4.16828 9.77778C4.16828 10.2222 4.29234 10.5926 4.54045 10.8889C4.78856 11.1358 5.16073 11.2593 5.65696 11.2593C6.89752 11.2593 7.93959 11.7037 8.78317 12.5926C9.67637 13.4321 10.123 14.4691 10.123 15.7037C10.123 16.9383 9.67637 17.9753 8.78317 18.8148C7.93959 19.6049 6.89752 20 5.65696 20ZM18.534 20C16.7972 20 15.4078 19.3827 14.3657 18.1481C13.3732 16.8642 12.877 15.2099 12.877 13.1852C12.877 10.4198 13.6214 7.92592 15.11 5.7037C16.6483 3.4321 18.9806 1.53086 22.1068 0L22.9256 1.18518C21.4369 2.07407 20.0723 3.33333 18.8317 4.96296C17.6408 6.54321 17.0453 8.14815 17.0453 9.77778C17.0453 10.2222 17.1694 10.5926 17.4175 10.8889C17.6656 11.1358 18.0378 11.2593 18.534 11.2593C19.7745 11.2593 20.8166 11.7037 21.6602 12.5926C22.5534 13.4321 23 14.4691 23 15.7037C23 16.9383 22.5534 17.9753 21.6602 18.8148C20.8166 19.6049 19.7745 20 18.534 20Z" fill="#F2F4FA"/>
</svg>
