<svg width="26" height="24" viewBox="0 0 26 24" fill="none" xmlns="http://www.w3.org/2000/svg">
<path opacity="0.5" d="M25.1987 3.61108C25.1987 2.06646 23.9469 0.814697 22.4023 0.814697H7.65771C6.11309 0.814697 4.86133 2.06646 4.86133 3.61108V3.8653H25.1987V3.61108Z" fill="#00ADEE"/>
<path opacity="0.5" d="M4.86133 4.88159V6.91532H18.3348C20.999 6.91532 23.1649 9.08125 23.1649 11.7454V14.9486C24.3445 14.613 25.1987 13.5351 25.1987 12.2539V4.88159H4.86133Z" fill="#00ADEE"/>
<path d="M18.3378 8.94946H3.59326C2.05067 8.94946 0.796875 10.2033 0.796875 11.7458V20.3892C0.796875 21.9318 2.05067 23.1856 3.59326 23.1856H18.3378C19.8804 23.1856 21.1342 21.9318 21.1342 20.3892V11.7458C21.1342 10.2033 19.8804 8.94946 18.3378 8.94946ZM3.59326 13.2711C3.59326 12.1495 4.50539 11.2374 5.627 11.2374H7.1523C8.2739 11.2374 9.18603 12.1495 9.18603 13.2711V14.7965C9.18603 15.9181 8.2739 16.8302 7.1523 16.8302H5.627C4.50539 16.8302 3.59326 15.9181 3.59326 14.7965V13.2711ZM17.321 20.8977H4.61013C4.04882 20.8977 3.59326 20.4421 3.59326 19.8808C3.59326 19.3195 4.04882 18.8639 4.61013 18.8639H17.321C17.8823 18.8639 18.3378 19.3195 18.3378 19.8808C18.3378 20.4421 17.8823 20.8977 17.321 20.8977Z" fill="#00ADEE"/>
</svg>
