<svg width="32" height="32" viewBox="0 0 32 32" fill="none" xmlns="http://www.w3.org/2000/svg">
<path d="M16 0C7.16342 0 0 7.16342 0 16C0 24.8365 7.16342 31.9999 16 31.9999C24.8365 31.9999 31.9999 24.8365 31.9999 16C31.9999 7.16342 24.8365 0 16 0ZM3.98264 16C3.98264 9.36295 9.36301 3.98264 16 3.98264C18.6004 3.98264 21.0077 4.8088 22.9743 6.21266L6.21266 22.9744C4.8088 21.0078 3.98264 18.6004 3.98264 16ZM16 28.0174C13.4011 28.0174 10.9951 27.1923 9.02926 25.79L25.79 9.02932C27.1923 10.9952 28.0173 13.4013 28.0173 16C28.0174 22.637 22.637 28.0174 16 28.0174Z" fill="#E41D40"/>
</svg>
