<svg width="32" height="32" viewBox="0 0 32 32" fill="none" xmlns="http://www.w3.org/2000/svg">
<path d="M23.4833 22.2967C23.3714 22.1548 20.6904 18.8203 16.0014 18.8203C11.3125 18.8203 8.63141 22.1547 8.51953 22.2967L10.4833 23.8439C10.5032 23.8187 12.5119 21.3203 16.0014 21.3203C19.4481 21.3203 21.4404 23.7457 21.5235 23.8489L21.5195 23.8439L23.4833 22.2967Z" fill="#7E8995"/>
<path d="M27.3137 4.68625C24.2917 1.66431 20.2738 0 16 0C11.7262 0 7.70831 1.66431 4.68625 4.68625C1.66431 7.70831 0 11.7262 0 16C0 20.2738 1.66431 24.2917 4.68625 27.3137C7.70831 30.3357 11.7262 32 16 32C20.2738 32 24.2917 30.3357 27.3137 27.3137C30.3357 24.2917 32 20.2738 32 16C32 11.7262 30.3357 7.70831 27.3137 4.68625ZM16 29.5C8.55606 29.5 2.5 23.4439 2.5 16C2.5 8.55606 8.55606 2.5 16 2.5C23.4439 2.5 29.5 8.55606 29.5 16C29.5 23.4439 23.4439 29.5 16 29.5Z" fill="#7E8995"/>
<path d="M10.5 13.2578C11.6046 13.2578 12.5 12.3624 12.5 11.2578C12.5 10.1532 11.6046 9.25781 10.5 9.25781C9.39543 9.25781 8.5 10.1532 8.5 11.2578C8.5 12.3624 9.39543 13.2578 10.5 13.2578Z" fill="#7E8995"/>
<path d="M21.5 13.2578C22.6046 13.2578 23.5 12.3624 23.5 11.2578C23.5 10.1532 22.6046 9.25781 21.5 9.25781C20.3954 9.25781 19.5 10.1532 19.5 11.2578C19.5 12.3624 20.3954 13.2578 21.5 13.2578Z" fill="#7E8995"/>
</svg>
