<svg width="32" height="33" viewBox="0 0 32 33" fill="none" xmlns="http://www.w3.org/2000/svg">
<g clip-path="url(#clip0)">
<path d="M31.3505 24.7728L20.0339 3.9392C19.1798 2.50133 17.6713 1.64258 15.9988 1.64258C14.3263 1.64258 12.8178 2.50133 11.9637 3.9392C11.9572 3.9502 11.9518 3.9612 11.9453 3.9722L0.666339 24.7399C-0.206098 26.2081 -0.222598 27.9713 0.621401 29.456C1.46734 30.9415 2.99134 31.8277 4.70053 31.8277H27.2345C28.9437 31.8277 30.5303 30.9415 31.3762 29.456C32.2202 27.9713 32.2038 26.208 31.3505 24.7728ZM14.1219 11.1819C14.1219 10.1453 14.9622 9.30502 15.9988 9.30502C17.0354 9.30502 17.8757 10.1453 17.8757 11.1819V18.6895C17.8757 19.726 17.0353 20.5663 15.9988 20.5663C14.9622 20.5663 14.1219 19.7259 14.1219 18.6895V11.1819ZM15.9988 28.074C14.4463 28.074 13.1834 26.8111 13.1834 25.2586C13.1834 23.7061 14.4463 22.4433 15.9988 22.4433C17.5512 22.4433 18.8141 23.7061 18.8141 25.2586C18.8142 26.811 17.5513 28.074 15.9988 28.074Z" fill="#E41D40"/>
</g>
<defs>
<clipPath id="clip0">
<rect width="32" height="32" fill="white" transform="translate(0 0.735352)"/>
</clipPath>
</defs>
</svg>
