<svg fill="none" height="40" viewBox="0 0 140 40" width="140" xmlns="http://www.w3.org/2000/svg">
    <path
            d="M23.5979 5.79505C23.8144 5.79505 23.9588 5.9364 23.9588 6.14841V31.6608C23.9588 31.8728 23.8144 32.0141 23.5979 32.0141H22.9485C22.732 32.0141 22.5876 31.8728 22.5876 31.6608V7.98587L12.8454 26.9965C12.7732 27.2085 12.6289 27.2792 12.4124 27.2792H11.6907C11.4742 27.2792 11.3299 27.2085 11.2577 26.9965L1.37113 7.98587V31.6608C1.37113 31.8728 1.2268 32.0141 1.01031 32.0141H0.360825C0.14433 32.0141 0 31.8728 0 31.6608V6.21908C0 6.00707 0.14433 5.86572 0.360825 5.86572H1.01031H1.4433C1.65979 5.86572 1.80412 5.9364 1.87629 6.14841L11.9794 25.7244L22.0825 6.14841C22.1546 5.9364 22.299 5.86572 22.5155 5.86572H23.2371H23.5979V5.79505ZM31.1753 32.0848H31.7526C31.9691 32.0848 32.1134 31.9435 32.1134 31.7314V13.7102C32.1134 13.4982 31.9691 13.3569 31.7526 13.3569H31.1753C30.9588 13.3569 30.8144 13.4982 30.8144 13.7102V31.7314C30.7423 31.9435 30.8866 32.0848 31.1753 32.0848ZM57.0103 13.2862C57.2268 13.2862 57.3711 13.4276 57.3711 13.6396V31.0247C57.3711 36.6078 53.5464 40 47.9175 40C42.9381 40 39.1134 37.0318 38.8247 33.7809C38.8247 33.5689 38.9691 33.4276 39.1856 33.4276H39.7629C39.9794 33.4276 40.1237 33.5689 40.1237 33.7809C40.3402 36.1837 43.299 38.7986 47.8454 38.7986C53.1134 38.7986 56 35.8304 56 31.0954V27.0671C54.4845 30.3887 51.2371 32.5088 47.268 32.5088C41.7835 32.5088 37.3093 28.2686 37.3093 22.7562C37.3093 17.2438 41.8557 12.9329 47.3402 12.9329C51.3093 12.9329 54.5567 15.1237 56.0722 18.3746V13.7102C56.0722 13.4982 56.2165 13.3569 56.433 13.3569L57.0103 13.2862ZM56.0722 22.6855C56.0722 17.8799 52.2474 14.2049 47.4124 14.2049C42.5773 14.2049 38.7526 17.9505 38.7526 22.6855C38.7526 27.4912 42.5773 31.1661 47.4124 31.1661C52.2474 31.1661 56.0722 27.4912 56.0722 22.6855ZM61.0515 0V40H140V0H61.0515ZM78.3711 32.4382C70.6495 32.4382 64.5155 26.3604 64.5155 18.8693C64.5155 11.3781 70.6495 5.30035 78.3711 5.30035C86.0928 5.30035 92.2268 11.3781 92.2268 18.8693C92.2268 26.3604 86.0928 32.4382 78.3711 32.4382ZM114.742 31.6608C114.742 31.8728 114.598 32.0141 114.381 32.0141H113.804C113.588 32.0141 113.443 31.9435 113.371 31.8021L99.2268 8.48057V31.6608C99.2268 31.8728 99.0825 32.0141 98.866 32.0141H98.1443C97.9278 32.0141 97.7835 31.8728 97.7835 31.6608V6.21908C97.7835 6.00707 97.9278 5.86572 98.1443 5.86572H98.7216C98.9381 5.86572 99.0825 5.9364 99.1546 6.07774L113.299 29.3993V6.21908C113.299 6.00707 113.443 5.86572 113.66 5.86572H114.309C114.526 5.86572 114.67 6.00707 114.67 6.21908L114.742 31.6608ZM136.464 31.6608C136.464 31.8728 136.32 32.0141 136.103 32.0141H122.608H122.392C122.175 32.0141 122.031 31.8728 122.031 31.6608V6.21908C122.031 6.00707 122.175 5.86572 122.392 5.86572H123.402H135.959C136.175 5.86572 136.32 6.00707 136.32 6.21908V6.78445C136.32 6.99647 136.175 7.13781 135.959 7.13781H123.402V18.2332H134.948C135.165 18.2332 135.309 18.3746 135.309 18.5866V19.1519C135.309 19.364 135.165 19.5053 134.948 19.5053H123.33V30.7421H136.103C136.32 30.7421 136.464 30.8834 136.464 31.0954V31.6608ZM78.3711 6.64311C71.4433 6.64311 65.9588 12.0848 65.9588 18.8693C65.9588 25.6537 71.4433 31.0954 78.3711 31.0954C85.299 31.0954 90.7835 25.6537 90.7835 18.8693C90.7835 12.0848 85.299 6.64311 78.3711 6.64311Z"
            fill="#00ADEE"/>
    <path
            d="M31.4653 8.47952C30.888 8.47952 30.3828 7.98482 30.3828 7.41945C30.3828 6.85407 30.888 6.35938 31.4653 6.35938C32.0426 6.35938 32.5478 6.85407 32.5478 7.41945C32.5478 7.98482 32.0426 8.47952 31.4653 8.47952Z"
            fill="#E2760F"/>
</svg>
